<svg xmlns="http://www.w3.org/2000/svg" xmlns:xlink="http://www.w3.org/1999/xlink" width="185.09" height="35.068" viewBox="0 0 185.09 35.068"><defs><clipPath id="a"><path d="M0,7.86H185.09V-27.208H0Z" transform="translate(0 27.208)" fill="none"/></clipPath></defs><g clip-path="url(#a)"><g transform="translate(21.355 2.235)"><path d="M2.106.51A2.277,2.277,0,0,0-.17-1.766H-5.014A2.277,2.277,0,0,0-7.29.51,2.277,2.277,0,0,0-5.014,2.786H-.17A2.277,2.277,0,0,0,2.106.51" transform="translate(7.29 1.766)" fill="#123e31"/></g><g transform="translate(0 2.235)"><path d="M4.082.51A2.277,2.277,0,0,0,1.805-1.766H-11.853A2.277,2.277,0,0,0-14.129.51a2.277,2.277,0,0,0,2.276,2.276H1.805A2.277,2.277,0,0,0,4.082.51" transform="translate(14.129 1.766)" fill="#ffa84a"/></g><g transform="translate(16.83 28.281)"><path d="M3.12.51A2.277,2.277,0,0,0,.844-1.766H-8.525A2.277,2.277,0,0,0-10.8.51,2.277,2.277,0,0,0-8.525,2.786H.844A2.277,2.277,0,0,0,3.12.51" transform="translate(10.801 1.766)" fill="#ffa84a"/></g><g transform="translate(0 28.281)"><path d="M3.112.51A2.277,2.277,0,0,0,.836-1.766H-8.5A2.277,2.277,0,0,0-10.774.51,2.277,2.277,0,0,0-8.5,2.786H.836A2.277,2.277,0,0,0,3.112.51" transform="translate(10.774 1.766)" fill="#123e31"/></g><g transform="translate(12.356 19.599)"><path d="M4.123.51A2.277,2.277,0,0,0,1.847-1.766H-11.995A2.277,2.277,0,0,0-14.272.51a2.277,2.277,0,0,0,2.277,2.276H1.847A2.277,2.277,0,0,0,4.123.51" transform="translate(14.272 1.766)" fill="#123e31"/></g><g transform="translate(0 19.599)"><path d="M2.1.51A2.277,2.277,0,0,0-.178-1.766H-4.987A2.276,2.276,0,0,0-7.263.51,2.276,2.276,0,0,0-4.987,2.786H-.178A2.277,2.277,0,0,0,2.1.51" transform="translate(7.263 1.766)" fill="#123e31"/></g><g transform="translate(16.83 10.917)"><path d="M3.12.51A2.277,2.277,0,0,0,.844-1.766H-8.525A2.277,2.277,0,0,0-10.8.51,2.277,2.277,0,0,0-8.525,2.786H.844A2.277,2.277,0,0,0,3.12.51" transform="translate(10.801 1.766)" fill="#123e31"/></g><g transform="translate(0 10.917)"><path d="M3.112.51A2.277,2.277,0,0,0,.836-1.766H-8.5A2.277,2.277,0,0,0-10.774.51,2.277,2.277,0,0,0-8.5,2.786H.836A2.277,2.277,0,0,0,3.112.51" transform="translate(10.774 1.766)" fill="#123e31"/></g><g transform="translate(37.102)"><path d="M3.93,7.86A17.553,17.553,0,0,1-13.6-9.674,17.553,17.553,0,0,1,3.93-27.208,17.554,17.554,0,0,1,21.464-9.674,17.554,17.554,0,0,1,3.93,7.86m0-29.143A11.622,11.622,0,0,0-7.68-9.674,11.623,11.623,0,0,0,3.93,1.936,11.623,11.623,0,0,0,15.54-9.674,11.622,11.622,0,0,0,3.93-21.283" transform="translate(13.604 27.208)" fill="#123e31"/></g><g transform="translate(86.442 7.756)"><path d="M1.606,4.147a9.2,9.2,0,0,0,2.869-.412A6.159,6.159,0,0,0,6.586,2.591,4.865,4.865,0,0,0,7.886.872a5.133,5.133,0,0,0,.443-2.131,3.62,3.62,0,0,0-.849-2.48,4.945,4.945,0,0,0-2.623-1.4,6.061,6.061,0,0,0,1.391-.695A4.025,4.025,0,0,0,7.2-6.724a3.408,3.408,0,0,0,.541-1.053A3.93,3.93,0,0,0,7.91-8.94a5.165,5.165,0,0,0-.375-2.007,3.7,3.7,0,0,0-1.2-1.527A6.039,6.039,0,0,0,4.2-13.447a12.58,12.58,0,0,0-3.164-.344h-6.6V4.147Zm-.1-7.608a4.863,4.863,0,0,1,1.3.147,2.171,2.171,0,0,1,.831.419,1.47,1.47,0,0,1,.443.665,2.832,2.832,0,0,1,.129.887,3.326,3.326,0,0,1-.111.849A1.811,1.811,0,0,1,3.7.256,2.134,2.134,0,0,1,2.881.8a3.687,3.687,0,0,1-1.348.209H-1.4V-3.461ZM-1.4-10.676H1.04a5.739,5.739,0,0,1,1.213.111A2.075,2.075,0,0,1,3.1-10.2a1.53,1.53,0,0,1,.492.684,3.037,3.037,0,0,1,.16,1.065,2.537,2.537,0,0,1-.2,1.083,1.594,1.594,0,0,1-.592.678,2.6,2.6,0,0,1-.942.344,7.123,7.123,0,0,1-1.244.1H-1.4ZM10.471-8.62v8.1a6.389,6.389,0,0,0,.282,1.945,4.445,4.445,0,0,0,.838,1.539,3.8,3.8,0,0,0,1.36,1.016,4.47,4.47,0,0,0,1.853.363,5.106,5.106,0,0,0,1.133-.117,5.123,5.123,0,0,0,.967-.32,4.742,4.742,0,0,0,.843-.492,7.381,7.381,0,0,0,.763-.647l.235.739a.9.9,0,0,0,.936.641h2.364V-8.62H18.228v9.1a4.4,4.4,0,0,1-1.066.727,2.712,2.712,0,0,1-1.175.259A1.556,1.556,0,0,1,14.718.946a2.224,2.224,0,0,1-.43-1.464v-8.1ZM24.833,4.147h3.816V-8.62H24.833Zm0-12.768,4.075-4.371a2.3,2.3,0,0,0-.5-.714,2.365,2.365,0,0,0-.745-.481,2.391,2.391,0,0,0-.906-.171,2.216,2.216,0,0,0-.874.171,2.344,2.344,0,0,0-.72.481,2.289,2.289,0,0,0-.492.714,2.153,2.153,0,0,0-.178.874,2.082,2.082,0,0,0,.178.856,2.239,2.239,0,0,0,.492.7,2.461,2.461,0,0,0,.72.479,2.154,2.154,0,0,0,.874.179,2.324,2.324,0,0,0,.906-.179,2.48,2.48,0,0,0,.745-.479,2.253,2.253,0,0,0,.5-.7,2.007,2.007,0,0,0,.184-.856,2.076,2.076,0,0,0-.184-.874M31.5,4.147h3.816V-14.284H31.5Zm0-18.431,12.9,18.351a5.252,5.252,0,0,0,1.661-.831L44.9,1.427a1,1,0,0,0-.215-.253.448.448,0,0,0-.277-.08.513.513,0,0,0-.215.043c-.062.03-.128.062-.2.1a1.439,1.439,0,0,1-.246.1,1.186,1.186,0,0,1-.351.044.726.726,0,0,1-.621-.29A1.186,1.186,0,0,1,42.56.356V-5.986h3.1V-8.6h-3.1v-3.73h-2a.76.76,0,0,0-.838.59l-.75,3.115-2.031.394v1.49a.718.718,0,0,0,.209.559.721.721,0,0,0,.505.191h1.083v6.6a4.557,4.557,0,0,0,.246,1.539,3.221,3.221,0,0,0,.72,1.177,3.182,3.182,0,0,0,1.17.75,4.491,4.491,0,0,0,1.606.266,6.62,6.62,0,0,0,1.909-.277M64.007-13.791H59.821v7.5H52.532v-7.5H48.346V4.147h4.186V-3.436h7.289V4.147h4.186ZM66.642-8.62v8.1a6.349,6.349,0,0,0,.284,1.945,4.442,4.442,0,0,0,.836,1.539,3.815,3.815,0,0,0,1.361,1.016,4.466,4.466,0,0,0,1.853.363,5.086,5.086,0,0,0,1.132-.117,5.062,5.062,0,0,0,.967-.32,4.707,4.707,0,0,0,.844-.492,7.519,7.519,0,0,0,.763-.647l.233.739a.9.9,0,0,0,.936.641h2.364V-8.62H74.4v9.1a4.394,4.394,0,0,1-1.065.727,2.72,2.72,0,0,1-1.175.259A1.552,1.552,0,0,1,70.89.946a2.224,2.224,0,0,1-.432-1.464v-8.1ZM83.435,4.147a1.079,1.079,0,0,0,.6-.148.816.816,0,0,0,.313-.541l.135-.641a7.876,7.876,0,0,0,.61.616,3.539,3.539,0,0,0,.69.486,3.465,3.465,0,0,0,.825.314,4.278,4.278,0,0,0,1.016.111,4.873,4.873,0,0,0,2.222-.505,5.167,5.167,0,0,0,1.725-1.4A6.69,6.69,0,0,0,92.688.318a8.476,8.476,0,0,0,.4-2.659,9.812,9.812,0,0,0-.352-2.745,6.365,6.365,0,0,0-.967-2.038,4.153,4.153,0,0,0-1.464-1.262,4.025,4.025,0,0,0-1.847-.432,4.946,4.946,0,0,0-2.124.425,5.8,5.8,0,0,0-1.619,1.126v-7.018H80.9V4.147Zm4.519-9.911a1.6,1.6,0,0,1,.634.61A3.488,3.488,0,0,1,89-4.04a8.207,8.207,0,0,1,.148,1.7,7.473,7.473,0,0,1-.186,1.8,3.55,3.55,0,0,1-.51,1.2,1.979,1.979,0,0,1-.769.67,2.236,2.236,0,0,1-.973.21,2.96,2.96,0,0,1-1.058-.191,2.412,2.412,0,0,1-.936-.672V-4.742a5.4,5.4,0,0,1,.492-.523,2.359,2.359,0,0,1,.535-.375,2.781,2.781,0,0,1,.629-.228,3.324,3.324,0,0,1,.757-.08,1.826,1.826,0,0,1,.825.184" transform="translate(5.56 14.357)" fill="#123e31"/></g></g></svg>