<?xml version="1.0" encoding="UTF-8" standalone="no"?>
<svg
   width="185.09"
   height="35.068001"
   viewBox="0 0 185.09 35.068"
   version="1.1"
   id="svg871"
   xmlns="http://www.w3.org/2000/svg"
   xmlns:svg="http://www.w3.org/2000/svg">
  <defs
     id="defs827">
    <clipPath
       id="a">
      <path
         d="M 0,7.86 H 185.09 V -27.208 H 0 Z"
         transform="translate(0,27.208)"
         fill="none"
         id="path824" />
    </clipPath>
  </defs>
  <g
     clip-path="url(#a)"
     id="g869">
    <g
       transform="translate(21.355,2.235)"
       id="g831">
      <path
         d="M 2.106,0.51 A 2.277,2.277 0 0 0 -0.17,-1.766 H -5.014 A 2.277,2.277 0 0 0 -7.29,0.51 2.277,2.277 0 0 0 -5.014,2.786 H -0.17 A 2.277,2.277 0 0 0 2.106,0.51"
         transform="translate(7.29,1.766)"
         fill="#123e31"
         id="path829" />
    </g>
    <g
       transform="translate(0,2.235)"
       id="g835">
      <path
         d="M 4.082,0.51 A 2.277,2.277 0 0 0 1.805,-1.766 h -13.658 a 2.277,2.277 0 0 0 -2.276,2.276 2.277,2.277 0 0 0 2.276,2.276 H 1.805 A 2.277,2.277 0 0 0 4.082,0.51"
         transform="translate(14.129,1.766)"
         fill="#ffa84a"
         id="path833" />
    </g>
    <g
       transform="translate(16.83,28.281)"
       id="g839">
      <path
         d="M 3.12,0.51 A 2.277,2.277 0 0 0 0.844,-1.766 H -8.525 A 2.277,2.277 0 0 0 -10.8,0.51 2.277,2.277 0 0 0 -8.525,2.786 H 0.844 A 2.277,2.277 0 0 0 3.12,0.51"
         transform="translate(10.801,1.766)"
         fill="#ffa84a"
         id="path837" />
    </g>
    <g
       transform="translate(0,28.281)"
       id="g843">
      <path
         d="M 3.112,0.51 A 2.277,2.277 0 0 0 0.836,-1.766 H -8.5 A 2.277,2.277 0 0 0 -10.774,0.51 2.277,2.277 0 0 0 -8.5,2.786 H 0.836 A 2.277,2.277 0 0 0 3.112,0.51"
         transform="translate(10.774,1.766)"
         fill="#123e31"
         id="path841" />
    </g>
    <g
       transform="translate(12.356,19.599)"
       id="g847">
      <path
         d="M 4.123,0.51 A 2.277,2.277 0 0 0 1.847,-1.766 h -13.842 a 2.277,2.277 0 0 0 -2.277,2.276 2.277,2.277 0 0 0 2.277,2.276 H 1.847 A 2.277,2.277 0 0 0 4.123,0.51"
         transform="translate(14.272,1.766)"
         fill="#123e31"
         id="path845" />
    </g>
    <g
       transform="translate(0,19.599)"
       id="g851">
      <path
         d="m 2.1,0.51 a 2.277,2.277 0 0 0 -2.278,-2.276 h -4.809 a 2.276,2.276 0 0 0 -2.276,2.276 2.276,2.276 0 0 0 2.276,2.276 h 4.809 A 2.277,2.277 0 0 0 2.1,0.51"
         transform="translate(7.263,1.766)"
         fill="#123e31"
         id="path849" />
    </g>
    <g
       transform="translate(16.83,10.917)"
       id="g855">
      <path
         d="M 3.12,0.51 A 2.277,2.277 0 0 0 0.844,-1.766 H -8.525 A 2.277,2.277 0 0 0 -10.8,0.51 2.277,2.277 0 0 0 -8.525,2.786 H 0.844 A 2.277,2.277 0 0 0 3.12,0.51"
         transform="translate(10.801,1.766)"
         fill="#123e31"
         id="path853" />
    </g>
    <g
       transform="translate(0,10.917)"
       id="g859">
      <path
         d="M 3.112,0.51 A 2.277,2.277 0 0 0 0.836,-1.766 H -8.5 A 2.277,2.277 0 0 0 -10.774,0.51 2.277,2.277 0 0 0 -8.5,2.786 H 0.836 A 2.277,2.277 0 0 0 3.112,0.51"
         transform="translate(10.774,1.766)"
         fill="#123e31"
         id="path857" />
    </g>
    <g
       transform="translate(37.102)"
       id="g863">
      <path
         d="M 3.93,7.86 A 17.553,17.553 0 0 1 -13.6,-9.674 17.553,17.553 0 0 1 3.93,-27.208 17.554,17.554 0 0 1 21.464,-9.674 17.554,17.554 0 0 1 3.93,7.86 m 0,-29.143 A 11.622,11.622 0 0 0 -7.68,-9.674 11.623,11.623 0 0 0 3.93,1.936 11.623,11.623 0 0 0 15.54,-9.674 11.622,11.622 0 0 0 3.93,-21.283"
         transform="translate(13.604,27.208)"
         fill="#123e31"
         id="path861" />
    </g>
    <g
       transform="translate(86.442,7.756)"
       id="g867">
      <path
         d="M 1.606,4.147 A 9.2,9.2 0 0 0 4.475,3.735 6.159,6.159 0 0 0 6.586,2.591 4.865,4.865 0 0 0 7.886,0.872 5.133,5.133 0 0 0 8.329,-1.259 3.62,3.62 0 0 0 7.48,-3.739 4.945,4.945 0 0 0 4.857,-5.139 6.061,6.061 0 0 0 6.248,-5.834 4.025,4.025 0 0 0 7.2,-6.724 3.408,3.408 0 0 0 7.741,-7.777 3.93,3.93 0 0 0 7.91,-8.94 5.165,5.165 0 0 0 7.535,-10.947 3.7,3.7 0 0 0 6.335,-12.474 6.039,6.039 0 0 0 4.2,-13.447 12.58,12.58 0 0 0 1.036,-13.791 h -6.6 V 4.147 Z m -0.1,-7.608 a 4.863,4.863 0 0 1 1.3,0.147 2.171,2.171 0 0 1 0.831,0.419 A 1.47,1.47 0 0 1 4.08,-2.23 2.832,2.832 0 0 1 4.209,-1.343 3.326,3.326 0 0 1 4.098,-0.494 1.811,1.811 0 0 1 3.7,0.256 2.134,2.134 0 0 1 2.881,0.8 3.687,3.687 0 0 1 1.533,1.009 H -1.4 v -4.47 z M -1.4,-10.676 h 2.44 a 5.739,5.739 0 0 1 1.213,0.111 2.075,2.075 0 0 1 0.847,0.365 1.53,1.53 0 0 1 0.492,0.684 3.037,3.037 0 0 1 0.16,1.065 2.537,2.537 0 0 1 -0.2,1.083 1.594,1.594 0 0 1 -0.592,0.678 2.6,2.6 0 0 1 -0.942,0.344 7.123,7.123 0 0 1 -1.244,0.1 H -1.4 Z m 11.871,2.056 v 8.1 a 6.389,6.389 0 0 0 0.282,1.945 4.445,4.445 0 0 0 0.838,1.539 3.8,3.8 0 0 0 1.36,1.016 4.47,4.47 0 0 0 1.853,0.363 5.106,5.106 0 0 0 1.133,-0.117 5.123,5.123 0 0 0 0.967,-0.32 4.742,4.742 0 0 0 0.843,-0.492 7.381,7.381 0 0 0 0.763,-0.647 l 0.235,0.739 a 0.9,0.9 0 0 0 0.936,0.641 h 2.364 V -8.62 h -3.817 v 9.1 a 4.4,4.4 0 0 1 -1.066,0.727 2.712,2.712 0 0 1 -1.175,0.259 1.556,1.556 0 0 1 -1.269,-0.52 2.224,2.224 0 0 1 -0.43,-1.464 v -8.1 z M 24.833,4.147 h 3.816 V -8.62 h -3.816 z m 0,-12.768 4.075,-4.371 a 2.3,2.3 0 0 0 -0.5,-0.714 2.365,2.365 0 0 0 -0.745,-0.481 2.391,2.391 0 0 0 -0.906,-0.171 2.216,2.216 0 0 0 -0.874,0.171 2.344,2.344 0 0 0 -0.72,0.481 2.289,2.289 0 0 0 -0.492,0.714 2.153,2.153 0 0 0 -0.178,0.874 2.082,2.082 0 0 0 0.178,0.856 2.239,2.239 0 0 0 0.492,0.7 2.461,2.461 0 0 0 0.72,0.479 2.154,2.154 0 0 0 0.874,0.179 2.324,2.324 0 0 0 0.906,-0.179 2.48,2.48 0 0 0 0.745,-0.479 2.253,2.253 0 0 0 0.5,-0.7 2.007,2.007 0 0 0 0.184,-0.856 2.076,2.076 0 0 0 -0.184,-0.874 M 31.5,4.147 h 3.816 V -14.284 H 31.5 Z m 0,-18.431 12.9,18.351 A 5.252,5.252 0 0 0 46.061,3.236 L 44.9,1.427 A 1,1 0 0 0 44.685,1.174 0.448,0.448 0 0 0 44.408,1.094 0.513,0.513 0 0 0 44.193,1.137 c -0.062,0.03 -0.128,0.062 -0.2,0.1 a 1.439,1.439 0 0 1 -0.246,0.1 1.186,1.186 0 0 1 -0.351,0.044 0.726,0.726 0 0 1 -0.621,-0.29 1.186,1.186 0 0 1 -0.215,-0.735 v -6.342 h 3.1 V -8.6 h -3.1 v -3.73 h -2 a 0.76,0.76 0 0 0 -0.838,0.59 l -0.75,3.115 -2.031,0.394 v 1.49 a 0.718,0.718 0 0 0 0.209,0.559 0.721,0.721 0 0 0 0.505,0.191 h 1.083 v 6.6 a 4.557,4.557 0 0 0 0.246,1.539 3.221,3.221 0 0 0 0.72,1.177 3.182,3.182 0 0 0 1.17,0.75 4.491,4.491 0 0 0 1.606,0.266 6.62,6.62 0 0 0 1.909,-0.277 m 19.618,-17.855 h -4.186 v 7.5 h -7.289 v -7.5 H 48.346 V 4.147 h 4.186 v -7.583 h 7.289 v 7.583 h 4.186 z m 2.635,5.171 v 8.1 a 6.349,6.349 0 0 0 0.284,1.945 4.442,4.442 0 0 0 0.836,1.539 3.815,3.815 0 0 0 1.361,1.016 4.466,4.466 0 0 0 1.853,0.363 5.086,5.086 0 0 0 1.132,-0.117 5.062,5.062 0 0 0 0.967,-0.32 4.707,4.707 0 0 0 0.844,-0.492 7.519,7.519 0 0 0 0.763,-0.647 l 0.233,0.739 a 0.9,0.9 0 0 0 0.936,0.641 h 2.364 V -8.62 H 74.4 v 9.1 A 4.394,4.394 0 0 1 73.335,1.207 2.72,2.72 0 0 1 72.16,1.466 1.552,1.552 0 0 1 70.89,0.946 2.224,2.224 0 0 1 70.458,-0.518 v -8.1 z M 83.435,4.147 a 1.079,1.079 0 0 0 0.6,-0.148 0.816,0.816 0 0 0 0.313,-0.541 l 0.135,-0.641 a 7.876,7.876 0 0 0 0.61,0.616 3.539,3.539 0 0 0 0.69,0.486 3.465,3.465 0 0 0 0.825,0.314 4.278,4.278 0 0 0 1.016,0.111 4.873,4.873 0 0 0 2.222,-0.505 5.167,5.167 0 0 0 1.725,-1.4 6.69,6.69 0 0 0 1.117,-2.121 8.476,8.476 0 0 0 0.4,-2.659 9.812,9.812 0 0 0 -0.352,-2.745 6.365,6.365 0 0 0 -0.967,-2.038 4.153,4.153 0 0 0 -1.464,-1.262 4.025,4.025 0 0 0 -1.847,-0.432 4.946,4.946 0 0 0 -2.124,0.425 5.8,5.8 0 0 0 -1.619,1.126 v -7.018 H 80.9 V 4.147 Z m 4.519,-9.911 a 1.6,1.6 0 0 1 0.634,0.61 3.488,3.488 0 0 1 0.412,1.114 8.207,8.207 0 0 1 0.148,1.7 7.473,7.473 0 0 1 -0.186,1.8 3.55,3.55 0 0 1 -0.51,1.2 A 1.979,1.979 0 0 1 87.683,1.33 2.236,2.236 0 0 1 86.71,1.54 2.96,2.96 0 0 1 85.652,1.349 2.412,2.412 0 0 1 84.716,0.677 v -5.419 a 5.4,5.4 0 0 1 0.492,-0.523 2.359,2.359 0 0 1 0.535,-0.375 2.781,2.781 0 0 1 0.629,-0.228 3.324,3.324 0 0 1 0.757,-0.08 1.826,1.826 0 0 1 0.825,0.184"
         transform="translate(5.56,14.357)"
         fill="#123e31"
         id="path865" />
    </g>
  </g>
  <path
     style="fill:#ffffff;stroke:#000000;stroke-width:1.59806"
     d="M 1.374169,6.5118843 C -0.06068965,5.8475664 -0.37828487,4.073708 0.73780581,2.9576173 0.97756682,2.7178563 1.3523657,2.4760114 1.5978436,2.4026644 2.1445655,2.2393079 15.962803,2.2153807 16.542881,2.3767862 c 0.517112,0.1438854 1.153961,0.6999358 1.385499,1.2097166 0.511221,1.1255668 0.02569,2.3920973 -1.121236,2.9247681 -0.399147,0.1853782 -0.831198,0.1963732 -7.7164874,0.1963732 -6.8766142,0 -7.3178433,-0.011194 -7.7164876,-0.1957598 z"
     id="path1463" />
  <path
     style="fill:#ffffff;stroke:#000000;stroke-width:1.59806"
     d="M 22.725735,6.5151486 C 21.942421,6.1592965 21.403481,5.3102762 21.408236,4.439623 c 0.0019,-0.3542806 0.336419,-1.1574981 0.610707,-1.4665293 0.09854,-0.111027 0.417009,-0.3135791 0.707698,-0.4501158 0.513073,-0.2409898 0.610852,-0.2482787 3.344073,-0.2492811 l 2.815547,-0.00103 0.565391,0.2953641 c 1.295712,0.6768879 1.619854,2.2351208 0.697673,3.3538867 -0.61653,0.7479571 -0.813289,0.7857292 -4.092966,0.7857292 -2.586091,0 -2.953659,-0.021244 -3.330624,-0.1924955 z"
     id="path1502" />
  <path
     style="fill:#ffffff;stroke:#000000;stroke-width:1.59806"
     d="M 1.374169,15.205006 C 0.85916715,14.934359 0.38473956,14.421667 0.19883108,13.934873 -0.16137579,12.991685 0.27611038,11.825237 1.1919942,11.286851 l 0.4992907,-0.293499 h 5.2324128 c 5.1931823,0 5.2356813,0.0017 5.6683633,0.233202 1.58238,0.846457 1.61073,3.083396 0.04952,3.907616 l -0.465874,0.245952 -5.2422127,-0.0042 C 2.3706708,15.372207 1.650187,15.35006 1.374169,15.205006 Z"
     id="path1541" />
  <path
     style="fill:#ffffff;stroke:#000000;stroke-width:1.59806"
     d="M 2.2198115,24.106495 C 2.1616736,24.083822 1.9434688,24.036888 1.7349122,24.002199 1.2455871,23.920808 0.50319938,23.285085 0.25222633,22.73254 -0.01944824,22.13442 0.00255977,21.547759 0.32061577,20.909504 0.62826642,20.292129 1.1461781,19.88913 1.8593917,19.712145 c 0.3188472,-0.07912 1.3880669,-0.108501 3.1183066,-0.08568 2.8255961,0.03726 2.9702546,0.06343 3.6211451,0.654896 0.8913967,0.810019 0.8913967,2.389263 0,3.199282 -0.6449448,0.586067 -0.7944714,0.612455 -3.6306939,0.640732 -1.453448,0.01449 -2.6902001,0.0078 -2.748338,-0.01488 z"
     id="path1580" />
  <path
     style="fill:#ffffff;stroke:#000000;stroke-width:1.59806"
     d="m 14.226819,24.041083 c -1.073935,-0.21561 -1.883865,-1.264322 -1.78346,-2.309257 0.06965,-0.724805 0.504907,-1.417828 1.116156,-1.77714 l 0.499291,-0.293499 7.228105,-0.02994 c 8.243009,-0.03414 8.015737,-0.05379 8.763552,0.757497 0.403946,0.438229 0.655751,1.011246 0.655751,1.492254 0,0.756842 -0.539773,1.57598 -1.31013,1.988202 -0.432193,0.231269 -0.443326,0.231634 -7.567938,0.248547 -3.924309,0.0093 -7.344907,-0.02518 -7.601327,-0.07666 z"
     id="path1619" />
  <path
     style="fill:#ffffff;stroke:#000000;stroke-width:1.59806"
     d="m 18.173835,15.180042 c -0.926169,-0.420657 -1.471331,-1.570816 -1.208028,-2.548647 0.169828,-0.630694 0.941253,-1.411719 1.558541,-1.577938 0.314506,-0.08469 1.955519,-0.111683 5.496491,-0.09042 l 5.048121,0.03031 0.49929,0.293499 c 1.199005,0.704813 1.477582,2.296911 0.580648,3.318463 -0.689899,0.785752 -0.561081,0.770165 -6.365204,0.770165 -4.812824,0 -5.210027,-0.01384 -5.609859,-0.195437 z"
     id="path1658" />
  <path
     style="fill:#ffffff;stroke:#000000;stroke-width:1.59806"
     d="M 1.6828457,32.674784 C 1.0421482,32.470545 0.61148627,32.10403 0.31640196,31.511873 0.00344357,30.883848 -0.01824951,30.292746 0.24999114,29.702285 0.45662925,29.247426 1.0762979,28.64102 1.4984985,28.4805 1.6462771,28.42431 3.9993456,28.38188 6.966806,28.38188 h 5.208905 l 0.465874,0.245953 c 0.25623,0.135273 0.608575,0.448559 0.782989,0.69619 0.282538,0.401144 0.317116,0.534696 0.317116,1.224816 0,0.692313 -0.03418,0.823259 -0.321809,1.232932 -0.176996,0.252094 -0.533752,0.577272 -0.79279,0.722616 l -0.47098,0.264264 -5.0210027,0.02181 c -3.878901,0.01685 -5.1190987,-0.0095 -5.4522626,-0.115669 z"
     id="path1697" />
  <path
     style="fill:#ffffff;stroke:#000000;stroke-width:1.59806"
     d="m 18.433529,32.656572 c -0.828455,-0.255136 -1.570672,-1.255902 -1.572943,-2.120874 -0.001,-0.389395 0.313614,-1.134907 0.611322,-1.448494 0.157621,-0.166028 0.463067,-0.392647 0.678768,-0.503599 0.370351,-0.1905 0.683312,-0.20173 5.621926,-0.20173 2.980354,0 5.341315,0.04242 5.489144,0.09862 0.422201,0.16052 1.04187,0.766926 1.248508,1.221785 0.526284,1.158477 -0.163295,2.587033 -1.430433,2.963333 -0.755041,0.224223 -9.91411,0.216441 -10.646292,-0.009 z"
     id="path1736" />
  <path
     style="fill:#ffffff;stroke:#000000;stroke-width:1.59806"
     d="M 52.95836,34.931903 C 44.575514,33.977947 38.219019,27.662203 37.265642,19.339788 36.696118,14.368182 38.479917,9.194575 42.043369,5.4828002 c 6.047739,-6.29946568 15.570708,-7.2120013 22.701133,-2.1753291 1.283985,0.9069606 3.233457,2.8554609 4.14682,4.1447532 3.005295,4.2422417 3.968091,9.7163007 2.58426,14.6930377 -1.833462,6.593764 -7.325889,11.522921 -14.077599,12.633884 -1.227136,0.201919 -3.36209,0.275378 -4.439623,0.152757 z m 4.181638,-6.017369 c 3.792949,-0.827419 7.036487,-3.62427 8.402041,-7.244946 C 66.648718,18.7353 66.509987,15.375467 65.165301,12.545624 63.121655,8.2448493 58.686239,5.6207685 53.94423,5.9070144 47.996574,6.266038 43.292382,11.022273 43.006547,16.965702 c -0.261303,5.43332 3.243106,10.307904 8.471938,11.784348 1.804699,0.509585 3.812187,0.567909 5.661513,0.164484 z"
     id="path1775" />
  <path
     style="fill:#ffffff;stroke:#000000;stroke-width:1.59806"
     d="M 86.519795,17.275505 V 8.3889455 l 4.360344,0.043252 c 3.715437,0.036855 4.469783,0.070812 5.100281,0.2295882 1.735675,0.4370889 3.066008,1.4316533 3.543933,2.6494613 0.202677,0.516448 0.249783,0.838463 0.255026,1.743359 0.0058,1.008761 -0.02054,1.164837 -0.28958,1.712702 -0.366245,0.745813 -1.088592,1.410181 -2.045374,1.881203 l -0.723761,0.356307 0.475521,0.122463 c 1.819614,0.468614 2.941625,1.740112 3.043195,3.448624 0.15537,2.613856 -1.555996,4.683239 -4.446014,5.376101 -0.790282,0.189465 -1.255005,0.208645 -5.071785,0.209317 l -4.201786,7.41e-4 z m 8.428653,5.670497 c 0.860184,-0.36179 1.294443,-1.118461 1.295646,-2.257583 7.4e-4,-0.6964 -0.190629,-1.166767 -0.622552,-1.530205 -0.509966,-0.429108 -0.951818,-0.511192 -3.102971,-0.576447 l -1.981974,-0.06012 v 2.351734 2.351733 l 1.981974,-0.04536 c 1.588903,-0.03636 2.070804,-0.08272 2.429877,-0.233747 z m -0.289344,-7.317891 c 0.261621,-0.119513 0.56344,-0.316188 0.670709,-0.437056 0.651665,-0.734277 0.640986,-2.412545 -0.0199,-3.127242 -0.502613,-0.543538 -0.851861,-0.625296 -2.897048,-0.678191 l -1.876269,-0.04853 v 2.297767 2.297766 l 1.823417,-0.04361 c 1.555132,-0.03719 1.893403,-0.07558 2.29909,-0.260906 z"
     id="path1814" />
  <path
     style="fill:#ffffff;stroke:#000000;stroke-width:1.59806"
     d="m 105.42732,26.208059 c -1.07881,-0.332175 -2.0939,-1.313893 -2.51588,-2.433171 -0.35371,-0.938197 -0.43014,-2.036775 -0.43014,-6.182603 v -4.009153 h 1.90449 1.9045 l -0.006,4.393605 c -0.006,4.388001 -0.006,4.39417 0.2366,4.836018 0.55816,1.01807 1.97564,1.094064 3.30804,0.177351 l 0.47451,-0.326474 v -4.54025 -4.54025 h 1.84984 1.84985 v 6.289466 6.289466 h -1.32827 c -0.73055,0 -1.41375,-0.04575 -1.51823,-0.101665 -0.1786,-0.09558 -0.26779,-0.261148 -0.53478,-0.99273 l -0.11007,-0.301603 -0.40811,0.368707 c -0.54812,0.495196 -1.21256,0.868375 -1.9071,1.07111 -0.70604,0.206097 -2.10346,0.207195 -2.7693,0.0022 z"
     id="path1853" />
  <path
     style="fill:#ffffff;stroke:#000000;stroke-width:1.59806"
     d="m 116.85722,19.872598 v -6.289466 h 1.84984 1.84984 v 6.289466 6.289466 h -1.84984 -1.84984 z"
     id="path1892" />
  <path
     style="fill:#ffffff;stroke:#000000;stroke-width:1.59806"
     d="m 117.86142,11.943449 c -0.85272,-0.457562 -1.39886,-1.372259 -1.29256,-2.1648184 0.0865,-0.6449366 0.53886,-1.3271108 1.09688,-1.6541299 1.25173,-0.7335649 2.95041,-0.011121 3.3074,1.4066329 0.20587,0.8175674 -0.17622,1.7061034 -0.95538,2.2217294 -0.55413,0.366705 -1.64795,0.463382 -2.15634,0.190586 z"
     id="path1931" />
  <path
     style="fill:#ffffff;stroke:#000000;stroke-width:1.59806"
     d="M 123.51665,17.018555 V 7.8750455 h 1.84985 1.84984 v 2.5580685 c 0,1.406938 -0.0393,2.512879 -0.0874,2.457648 -0.0481,-0.05523 -0.31209,-0.4215 -0.58672,-0.81393 -0.27463,-0.392431 -0.52331,-0.713511 -0.55264,-0.713511 -0.0293,0 0.2347,0.420516 0.58672,0.934481 l 0.64004,0.934481 v 6.464891 6.46489 h -1.84984 -1.84985 z m 2.21981,-6.117965 c 0,-0.02195 -0.0832,-0.105193 -0.18498,-0.184984 -0.16765,-0.131484 -0.17139,-0.127745 -0.0399,0.03991 0.13809,0.176079 0.22489,0.232074 0.22489,0.145075 z m -0.63423,-0.858586 c -0.18,-0.2616203 -0.35105,-0.4756736 -0.38012,-0.4756736 -0.0291,0 0.0944,0.2140533 0.27442,0.4756736 0.18,0.261621 0.35105,0.475674 0.38012,0.475674 0.0291,0 -0.0944,-0.214053 -0.27442,-0.475674 z"
     id="path1970" />
  <path
     style="fill:#ffffff;stroke:#000000;stroke-width:1.59806"
     d=""
     id="path2009" />
  <path
     style="fill:#ffffff;stroke:#000000;stroke-width:1.59806"
     d="m 133.58508,22.078908 -2.77476,-3.964927 v -0.984646 -0.984647 l -0.70121,-0.04465 c -0.95373,-0.06073 -1.09578,-0.236344 -1.09578,-1.354665 v -0.822738 l 0.99752,-0.18788 0.99753,-0.187879 0.40307,-1.640353 c 0.22169,-0.902194 0.47442,-1.723772 0.56163,-1.825728 0.19096,-0.2232638 0.20808,-0.2256489 1.5063,-0.2098729 l 1.03063,0.012524 v 1.8498429 1.849843 h 1.53272 1.53273 v 1.268464 1.268464 h -1.53273 -1.53272 v 3.334966 c 0,2.775428 0.0269,3.387035 0.16048,3.645302 0.18147,0.35094 0.52796,0.475932 1.03005,0.371588 0.91547,-0.19025 0.92671,-0.184658 1.58322,0.787452 0.33374,0.494173 0.59536,0.964594 0.58138,1.045383 -0.0279,0.161475 -1.09353,0.74941 -1.34673,0.74306 -0.0872,-0.0022 -1.40721,-1.788193 -2.93333,-3.968903 z"
     id="path2048" />
  <path
     style="fill:#ffffff;stroke:#000000;stroke-width:1.59806"
     d="m 133.0518,26.173245 c -1.07823,-0.372427 -1.89489,-1.295868 -2.12404,-2.40179 -0.0805,-0.388237 -0.1168,-1.276887 -0.0967,-2.36458 l 0.0322,-1.742587 1.47433,2.112556 c 0.81088,1.161906 1.86572,2.643296 2.34409,3.291979 0.47836,0.648682 0.84158,1.207599 0.80714,1.242037 -0.14784,0.147838 -1.89637,0.0491 -2.43693,-0.137615 z"
     id="path2087" />
  <path
     style="fill:#ffffff;stroke:#000000;stroke-width:1.59806"
     d="M 140.4295,17.282818 V 8.403572 h 2.0084 2.0084 v 3.752539 3.752538 h 3.69969 3.69969 V 12.156111 8.403572 h 2.06125 2.06125 v 8.879246 8.879246 h -2.06125 -2.06125 v -3.752539 -3.752538 h -3.69969 -3.69969 v 3.752538 3.752539 h -2.0084 -2.0084 z"
     id="path2126" />
  <path
     style="fill:#ffffff;stroke:#000000;stroke-width:1.59806"
     d="m 161.62342,26.202503 c -1.00116,-0.318073 -1.88235,-1.082206 -2.38934,-2.071939 -0.4668,-0.911276 -0.51435,-1.476558 -0.516,-6.134235 l -0.002,-4.413197 h 1.84552 1.84552 l 0.0308,4.466049 c 0.0288,4.177994 0.0438,4.487565 0.23264,4.799629 0.60506,0.999727 2.13566,1.031689 3.41852,0.07138 l 0.34354,-0.257164 v -4.539949 -4.539949 h 1.84984 1.84984 v 6.289466 6.289466 h -1.35574 c -1.54108,0 -1.67361,-0.06277 -1.92368,-0.911145 l -0.12835,-0.43547 -0.66571,0.503872 c -0.9503,0.719282 -1.67771,0.973942 -2.90307,1.016347 -0.70847,0.02452 -1.15984,-0.0147 -1.53272,-0.133165 z"
     id="path2165" />
  <path
     style="fill:#ffffff;stroke:#000000;stroke-width:1.59806"
     d="m 178.41362,26.227639 c -0.5065,-0.165133 -0.9832,-0.473649 -1.53005,-0.990231 -0.4134,-0.390513 -0.44908,-0.378878 -0.56645,0.184719 -0.14688,0.705286 -0.23431,0.739937 -1.86689,0.739937 h -1.46349 V 17.018555 7.8750455 h 1.84984 1.84984 v 3.4882755 c 0,1.918551 0.0294,3.488275 0.0653,3.488275 0.0359,0 0.23562,-0.149521 0.44376,-0.332269 0.20813,-0.182748 0.73765,-0.503828 1.17671,-0.713511 0.76713,-0.366366 0.84365,-0.381242 1.96104,-0.381242 1.04271,0 1.22571,0.0295 1.77249,0.285725 1.24239,0.582191 2.24914,1.983009 2.68357,3.733998 0.25694,1.035627 0.26171,3.442904 0.009,4.383849 -0.52332,1.94608 -1.61729,3.386936 -3.1096,4.095632 -0.74636,0.354445 -0.91908,0.394031 -1.8296,0.419316 -0.6337,0.0176 -1.16801,-0.02509 -1.44519,-0.115455 z m 0.94934,-2.610126 c 0.55033,-0.152817 1.16365,-0.733694 1.4311,-1.355397 0.56484,-1.313007 0.5336,-3.895479 -0.0614,-5.074795 -0.42686,-0.846063 -0.71117,-1.015014 -1.70243,-1.011686 -0.92559,0.0031 -1.42263,0.193046 -1.99006,0.760477 l -0.35376,0.353753 v 2.779241 2.779241 l 0.26063,0.244851 c 0.29994,0.281775 1.22987,0.629407 1.69492,0.633604 0.17442,0.0016 0.49886,-0.04761 0.72099,-0.109289 z"
     id="path2204" />
</svg>
