<?xml version="1.0" encoding="UTF-8" standalone="no"?>
<svg
   width="185.09"
   height="35.068001"
   viewBox="0 0 185.09 35.068"
   version="1.1"
   id="svg871"
   xmlns="http://www.w3.org/2000/svg"
   xmlns:svg="http://www.w3.org/2000/svg">
  <defs
     id="defs827">
    <clipPath
       id="a">
      <path
         d="M 0,7.86 H 185.09 V -27.208 H 0 Z"
         transform="translate(0,27.208)"
         fill="none"
         id="path824" />
    </clipPath>
  </defs>
  <g
     clip-path="url(#a)"
     id="g869"
     style="fill:#f8ad3b;fill-opacity:1">
    <g
       transform="translate(21.355,2.235)"
       id="g831"
       style="fill:#f8ad3b;fill-opacity:1">
      <path
         d="M 2.106,0.51 A 2.277,2.277 0 0 0 -0.17,-1.766 H -5.014 A 2.277,2.277 0 0 0 -7.29,0.51 2.277,2.277 0 0 0 -5.014,2.786 H -0.17 A 2.277,2.277 0 0 0 2.106,0.51"
         transform="translate(7.29,1.766)"
         fill="#123e31"
         id="path829"
         style="fill:#f8ad3b;fill-opacity:1" />
    </g>
    <g
       transform="translate(0,2.235)"
       id="g835"
       style="fill:#f8ad3b;fill-opacity:1">
      <path
         d="M 4.082,0.51 A 2.277,2.277 0 0 0 1.805,-1.766 h -13.658 a 2.277,2.277 0 0 0 -2.276,2.276 2.277,2.277 0 0 0 2.276,2.276 H 1.805 A 2.277,2.277 0 0 0 4.082,0.51"
         transform="translate(14.129,1.766)"
         fill="#ffa84a"
         id="path833"
         style="fill:#f8ad3b;fill-opacity:1" />
    </g>
    <g
       transform="translate(16.83,28.281)"
       id="g839"
       style="fill:#f8ad3b;fill-opacity:1">
      <path
         d="M 3.12,0.51 A 2.277,2.277 0 0 0 0.844,-1.766 H -8.525 A 2.277,2.277 0 0 0 -10.8,0.51 2.277,2.277 0 0 0 -8.525,2.786 H 0.844 A 2.277,2.277 0 0 0 3.12,0.51"
         transform="translate(10.801,1.766)"
         fill="#ffa84a"
         id="path837"
         style="fill:#f8ad3b;fill-opacity:1" />
    </g>
    <g
       transform="translate(0,28.281)"
       id="g843"
       style="fill:#f8ad3b;fill-opacity:1">
      <path
         d="M 3.112,0.51 A 2.277,2.277 0 0 0 0.836,-1.766 H -8.5 A 2.277,2.277 0 0 0 -10.774,0.51 2.277,2.277 0 0 0 -8.5,2.786 H 0.836 A 2.277,2.277 0 0 0 3.112,0.51"
         transform="translate(10.774,1.766)"
         fill="#123e31"
         id="path841"
         style="fill:#f8ad3b;fill-opacity:1" />
    </g>
    <g
       transform="translate(12.356,19.599)"
       id="g847"
       style="fill:#f8ad3b;fill-opacity:1">
      <path
         d="M 4.123,0.51 A 2.277,2.277 0 0 0 1.847,-1.766 h -13.842 a 2.277,2.277 0 0 0 -2.277,2.276 2.277,2.277 0 0 0 2.277,2.276 H 1.847 A 2.277,2.277 0 0 0 4.123,0.51"
         transform="translate(14.272,1.766)"
         fill="#123e31"
         id="path845"
         style="fill:#f8ad3b;fill-opacity:1" />
    </g>
    <g
       transform="translate(0,19.599)"
       id="g851"
       style="fill:#f8ad3b;fill-opacity:1">
      <path
         d="m 2.1,0.51 a 2.277,2.277 0 0 0 -2.278,-2.276 h -4.809 a 2.276,2.276 0 0 0 -2.276,2.276 2.276,2.276 0 0 0 2.276,2.276 h 4.809 A 2.277,2.277 0 0 0 2.1,0.51"
         transform="translate(7.263,1.766)"
         fill="#123e31"
         id="path849"
         style="fill:#f8ad3b;fill-opacity:1" />
    </g>
    <g
       transform="translate(16.83,10.917)"
       id="g855"
       style="fill:#f8ad3b;fill-opacity:1">
      <path
         d="M 3.12,0.51 A 2.277,2.277 0 0 0 0.844,-1.766 H -8.525 A 2.277,2.277 0 0 0 -10.8,0.51 2.277,2.277 0 0 0 -8.525,2.786 H 0.844 A 2.277,2.277 0 0 0 3.12,0.51"
         transform="translate(10.801,1.766)"
         fill="#123e31"
         id="path853"
         style="fill:#f8ad3b;fill-opacity:1" />
    </g>
    <g
       transform="translate(0,10.917)"
       id="g859"
       style="fill:#f8ad3b;fill-opacity:1">
      <path
         d="M 3.112,0.51 A 2.277,2.277 0 0 0 0.836,-1.766 H -8.5 A 2.277,2.277 0 0 0 -10.774,0.51 2.277,2.277 0 0 0 -8.5,2.786 H 0.836 A 2.277,2.277 0 0 0 3.112,0.51"
         transform="translate(10.774,1.766)"
         fill="#123e31"
         id="path857"
         style="fill:#f8ad3b;fill-opacity:1" />
    </g>
    <g
       transform="translate(37.102)"
       id="g863"
       style="fill:#f8ad3b;fill-opacity:1">
      <path
         d="M 3.93,7.86 A 17.553,17.553 0 0 1 -13.6,-9.674 17.553,17.553 0 0 1 3.93,-27.208 17.554,17.554 0 0 1 21.464,-9.674 17.554,17.554 0 0 1 3.93,7.86 m 0,-29.143 A 11.622,11.622 0 0 0 -7.68,-9.674 11.623,11.623 0 0 0 3.93,1.936 11.623,11.623 0 0 0 15.54,-9.674 11.622,11.622 0 0 0 3.93,-21.283"
         transform="translate(13.604,27.208)"
         fill="#123e31"
         id="path861"
         style="fill:#f8ad3b;fill-opacity:1" />
    </g>
    <g
       transform="translate(86.442,7.756)"
       id="g867"
       style="fill:#f8ad3b;fill-opacity:1">
      <path
         d="M 1.606,4.147 A 9.2,9.2 0 0 0 4.475,3.735 6.159,6.159 0 0 0 6.586,2.591 4.865,4.865 0 0 0 7.886,0.872 5.133,5.133 0 0 0 8.329,-1.259 3.62,3.62 0 0 0 7.48,-3.739 4.945,4.945 0 0 0 4.857,-5.139 6.061,6.061 0 0 0 6.248,-5.834 4.025,4.025 0 0 0 7.2,-6.724 3.408,3.408 0 0 0 7.741,-7.777 3.93,3.93 0 0 0 7.91,-8.94 5.165,5.165 0 0 0 7.535,-10.947 3.7,3.7 0 0 0 6.335,-12.474 6.039,6.039 0 0 0 4.2,-13.447 12.58,12.58 0 0 0 1.036,-13.791 h -6.6 V 4.147 Z m -0.1,-7.608 a 4.863,4.863 0 0 1 1.3,0.147 2.171,2.171 0 0 1 0.831,0.419 A 1.47,1.47 0 0 1 4.08,-2.23 2.832,2.832 0 0 1 4.209,-1.343 3.326,3.326 0 0 1 4.098,-0.494 1.811,1.811 0 0 1 3.7,0.256 2.134,2.134 0 0 1 2.881,0.8 3.687,3.687 0 0 1 1.533,1.009 H -1.4 v -4.47 z M -1.4,-10.676 h 2.44 a 5.739,5.739 0 0 1 1.213,0.111 2.075,2.075 0 0 1 0.847,0.365 1.53,1.53 0 0 1 0.492,0.684 3.037,3.037 0 0 1 0.16,1.065 2.537,2.537 0 0 1 -0.2,1.083 1.594,1.594 0 0 1 -0.592,0.678 2.6,2.6 0 0 1 -0.942,0.344 7.123,7.123 0 0 1 -1.244,0.1 H -1.4 Z m 11.871,2.056 v 8.1 a 6.389,6.389 0 0 0 0.282,1.945 4.445,4.445 0 0 0 0.838,1.539 3.8,3.8 0 0 0 1.36,1.016 4.47,4.47 0 0 0 1.853,0.363 5.106,5.106 0 0 0 1.133,-0.117 5.123,5.123 0 0 0 0.967,-0.32 4.742,4.742 0 0 0 0.843,-0.492 7.381,7.381 0 0 0 0.763,-0.647 l 0.235,0.739 a 0.9,0.9 0 0 0 0.936,0.641 h 2.364 V -8.62 h -3.817 v 9.1 a 4.4,4.4 0 0 1 -1.066,0.727 2.712,2.712 0 0 1 -1.175,0.259 1.556,1.556 0 0 1 -1.269,-0.52 2.224,2.224 0 0 1 -0.43,-1.464 v -8.1 z M 24.833,4.147 h 3.816 V -8.62 h -3.816 z m 0,-12.768 4.075,-4.371 a 2.3,2.3 0 0 0 -0.5,-0.714 2.365,2.365 0 0 0 -0.745,-0.481 2.391,2.391 0 0 0 -0.906,-0.171 2.216,2.216 0 0 0 -0.874,0.171 2.344,2.344 0 0 0 -0.72,0.481 2.289,2.289 0 0 0 -0.492,0.714 2.153,2.153 0 0 0 -0.178,0.874 2.082,2.082 0 0 0 0.178,0.856 2.239,2.239 0 0 0 0.492,0.7 2.461,2.461 0 0 0 0.72,0.479 2.154,2.154 0 0 0 0.874,0.179 2.324,2.324 0 0 0 0.906,-0.179 2.48,2.48 0 0 0 0.745,-0.479 2.253,2.253 0 0 0 0.5,-0.7 2.007,2.007 0 0 0 0.184,-0.856 2.076,2.076 0 0 0 -0.184,-0.874 M 31.5,4.147 h 3.816 V -14.284 H 31.5 Z m 0,-18.431 12.9,18.351 A 5.252,5.252 0 0 0 46.061,3.236 L 44.9,1.427 A 1,1 0 0 0 44.685,1.174 0.448,0.448 0 0 0 44.408,1.094 0.513,0.513 0 0 0 44.193,1.137 c -0.062,0.03 -0.128,0.062 -0.2,0.1 a 1.439,1.439 0 0 1 -0.246,0.1 1.186,1.186 0 0 1 -0.351,0.044 0.726,0.726 0 0 1 -0.621,-0.29 1.186,1.186 0 0 1 -0.215,-0.735 v -6.342 h 3.1 V -8.6 h -3.1 v -3.73 h -2 a 0.76,0.76 0 0 0 -0.838,0.59 l -0.75,3.115 -2.031,0.394 v 1.49 a 0.718,0.718 0 0 0 0.209,0.559 0.721,0.721 0 0 0 0.505,0.191 h 1.083 v 6.6 a 4.557,4.557 0 0 0 0.246,1.539 3.221,3.221 0 0 0 0.72,1.177 3.182,3.182 0 0 0 1.17,0.75 4.491,4.491 0 0 0 1.606,0.266 6.62,6.62 0 0 0 1.909,-0.277 m 19.618,-17.855 h -4.186 v 7.5 h -7.289 v -7.5 H 48.346 V 4.147 h 4.186 v -7.583 h 7.289 v 7.583 h 4.186 z m 2.635,5.171 v 8.1 a 6.349,6.349 0 0 0 0.284,1.945 4.442,4.442 0 0 0 0.836,1.539 3.815,3.815 0 0 0 1.361,1.016 4.466,4.466 0 0 0 1.853,0.363 5.086,5.086 0 0 0 1.132,-0.117 5.062,5.062 0 0 0 0.967,-0.32 4.707,4.707 0 0 0 0.844,-0.492 7.519,7.519 0 0 0 0.763,-0.647 l 0.233,0.739 a 0.9,0.9 0 0 0 0.936,0.641 h 2.364 V -8.62 H 74.4 v 9.1 A 4.394,4.394 0 0 1 73.335,1.207 2.72,2.72 0 0 1 72.16,1.466 1.552,1.552 0 0 1 70.89,0.946 2.224,2.224 0 0 1 70.458,-0.518 v -8.1 z M 83.435,4.147 a 1.079,1.079 0 0 0 0.6,-0.148 0.816,0.816 0 0 0 0.313,-0.541 l 0.135,-0.641 a 7.876,7.876 0 0 0 0.61,0.616 3.539,3.539 0 0 0 0.69,0.486 3.465,3.465 0 0 0 0.825,0.314 4.278,4.278 0 0 0 1.016,0.111 4.873,4.873 0 0 0 2.222,-0.505 5.167,5.167 0 0 0 1.725,-1.4 6.69,6.69 0 0 0 1.117,-2.121 8.476,8.476 0 0 0 0.4,-2.659 9.812,9.812 0 0 0 -0.352,-2.745 6.365,6.365 0 0 0 -0.967,-2.038 4.153,4.153 0 0 0 -1.464,-1.262 4.025,4.025 0 0 0 -1.847,-0.432 4.946,4.946 0 0 0 -2.124,0.425 5.8,5.8 0 0 0 -1.619,1.126 v -7.018 H 80.9 V 4.147 Z m 4.519,-9.911 a 1.6,1.6 0 0 1 0.634,0.61 3.488,3.488 0 0 1 0.412,1.114 8.207,8.207 0 0 1 0.148,1.7 7.473,7.473 0 0 1 -0.186,1.8 3.55,3.55 0 0 1 -0.51,1.2 A 1.979,1.979 0 0 1 87.683,1.33 2.236,2.236 0 0 1 86.71,1.54 2.96,2.96 0 0 1 85.652,1.349 2.412,2.412 0 0 1 84.716,0.677 v -5.419 a 5.4,5.4 0 0 1 0.492,-0.523 2.359,2.359 0 0 1 0.535,-0.375 2.781,2.781 0 0 1 0.629,-0.228 3.324,3.324 0 0 1 0.757,-0.08 1.826,1.826 0 0 1 0.825,0.184"
         transform="translate(5.56,14.357)"
         fill="#123e31"
         id="path865"
         style="fill:#f8ad3b;fill-opacity:1" />
    </g>
  </g>
</svg>
