<?xml version="1.0" encoding="iso-8859-1"?>
<!-- Generator: Adobe Illustrator 18.0.0, SVG Export Plug-In . SVG Version: 6.00 Build 0)  -->
<!DOCTYPE svg PUBLIC "-//W3C//DTD SVG 1.1//EN" "http://www.w3.org/Graphics/SVG/1.1/DTD/svg11.dtd">
<svg version="1.1" 
	id="Capa_1"
	xmlns="http://www.w3.org/2000/svg" 
	xmlns:xlink="http://www.w3.org/1999/xlink" 
	x="0px" 
	y="0px"
	
	viewBox="0 0 302.452 302.452" 
	style="enable-background:new 0 0 302.452 302.452;" 
	xml:space="preserve">
	<title
   id="title1478">BuiltHub - Comparison Dashboard</title>
<g>
	<path d="M276.658,126.91L159.56,3.474c-2.1-2.215-5.016-3.468-8.072-3.474c-3.055-0.005-5.977,1.245-8.081,3.459L25.813,126.896
		c-3.077,3.23-3.932,7.977-2.176,12.077c1.757,4.096,5.789,6.753,10.242,6.753h16.004v126.199c0,16.855,13.67,30.526,30.53,30.526
		h60.579v-54.937c-16.129-4.483-28.033-19.119-28.033-36.677v-29.68c-5.629,0-10.192-4.563-10.192-10.192
		c0-5.627,4.563-10.191,10.192-10.191h16.552v-22.503c0-4.22,3.423-7.644,7.644-7.644c4.221,0,7.644,3.424,7.644,7.644v22.503
		h15.288v-22.509c0-4.22,3.423-7.644,7.644-7.644c4.22,0,7.644,3.423,7.644,7.644v22.509h14.033c5.629,0,10.192,4.564,10.192,10.191
		c0,5.629-4.563,10.192-10.192,10.192l-0.004,29.685c-0.005,17.558-11.904,32.188-28.028,36.667v54.941h60.589
		c16.86,0,30.525-13.671,30.525-30.526V145.727h16.079c4.454,0,8.48-2.652,10.237-6.743
		C280.569,134.888,279.723,130.145,276.658,126.91z"/>
</g>
<g>
</g>
<g>
</g>
<g>
</g>
<g>
</g>
<g>
</g>
<g>
</g>
<g>
</g>
<g>
</g>
<g>
</g>
<g>
</g>
<g>
</g>
<g>
</g>
<g>
</g>
<g>
</g>
<g>
</g>
</svg>
