<?xml version="1.0" encoding="UTF-8" standalone="no"?>
<!-- Generator: Adobe Illustrator 18.1.1, SVG Export Plug-In . SVG Version: 6.00 Build 0)  -->

<svg
   version="1.1"
   id="Capa_1"
   x="0px"
   y="0px"
   viewBox="0 0 38.466 45.174"
   xml:space="preserve"
   width="38.466"
   height="45.174"
   xmlns="http://www.w3.org/2000/svg"
   xmlns:svg="http://www.w3.org/2000/svg">
   <title
   id="title1478">BuiltHub - Energy</title><defs
   id="defs9849" />
<g
   id="g9814"
   transform="translate(-3.354)"
   style="fill:#104233;fill-opacity:1">
	<g
   id="g9812"
   style="fill:#104233;fill-opacity:1">
		<path
   style="fill:#104233;fill-opacity:1"
   d="m 29.245,7.917 v 6.607 c 3.926,2.298 6.575,6.549 6.575,11.417 0,7.298 -5.937,13.233 -13.233,13.233 -7.296,0 -13.233,-5.936 -13.233,-13.233 0,-5 2.789,-9.359 6.891,-11.609 V 7.801 c -7.501,2.623 -12.891,9.744 -12.891,18.14 0,10.623 8.611,19.233 19.233,19.233 10.622,0 19.233,-8.61 19.233,-19.233 0,-8.277 -5.239,-15.312 -12.575,-18.024 z"
   id="path9808" />
		<path
   style="fill:#104233;fill-opacity:1"
   d="m 20.245,22.146 c 0,1.264 0.926,1.854 2.19,1.854 h 0.589 c 1.264,0 2.221,-0.59 2.221,-1.854 V 2.364 C 25.245,1.1 24.288,0 23.024,0 h -0.589 c -1.264,0 -2.19,1.1 -2.19,2.364 z"
   id="path9810" />
	</g>
</g>
<g
   id="g9816"
   transform="translate(-3.354)">
</g>
<g
   id="g9818"
   transform="translate(-3.354)">
</g>
<g
   id="g9820"
   transform="translate(-3.354)">
</g>
<g
   id="g9822"
   transform="translate(-3.354)">
</g>
<g
   id="g9824"
   transform="translate(-3.354)">
</g>
<g
   id="g9826"
   transform="translate(-3.354)">
</g>
<g
   id="g9828"
   transform="translate(-3.354)">
</g>
<g
   id="g9830"
   transform="translate(-3.354)">
</g>
<g
   id="g9832"
   transform="translate(-3.354)">
</g>
<g
   id="g9834"
   transform="translate(-3.354)">
</g>
<g
   id="g9836"
   transform="translate(-3.354)">
</g>
<g
   id="g9838"
   transform="translate(-3.354)">
</g>
<g
   id="g9840"
   transform="translate(-3.354)">
</g>
<g
   id="g9842"
   transform="translate(-3.354)">
</g>
<g
   id="g9844"
   transform="translate(-3.354)">
</g>
</svg>
