<?xml version="1.0" encoding="UTF-8" standalone="no"?>
<!-- Generator: Adobe Illustrator 19.0.0, SVG Export Plug-In . SVG Version: 6.00 Build 0)  -->

<svg
   version="1.1"
   id="Layer_1"
   x="0px"
   y="0px"
   viewBox="0 0 512.002 512.002"
   xml:space="preserve"
   style="enable-background:new 0 0 512.002 512.002;"
   xmlns="http://www.w3.org/2000/svg"
   xmlns:svg="http://www.w3.org/2000/svg">
   <title
   id="title1478">BuiltHub - ML Method</title><defs
   id="defs4570" />
<path
   style="fill:#ffffff;fill-opacity:0;stroke:#104233;stroke-width:14.6567;stroke-miterlimit:4;stroke-dasharray:none;stroke-opacity:1"
   d="M 121.6952,435.95283 C 108.67163,430.74369 99.682393,418.61714 98.662516,404.62811 96.71576,377.91429 90.965617,332.72276 73.983747,298.75992 55.1889,261.16928 39.749517,216.25206 39.749517,170.3818 c 0,-31.38102 11.054316,-70.6081 42.793044,-102.702619 C 134.1416,15.501335 178.47038,7.7695216 236.59711,7.7695216 c 94.1438,0 130.71457,37.8165504 147.10022,59.9096594 15.86892,21.396033 25.34479,68.002049 32.62973,83.980599 5.52811,12.12459 8.02362,23.00153 1.60446,36.90907 -6.41905,13.90761 -3.74128,19.45506 1.24877,29.24129 4.63514,9.09302 25.73933,39.54996 32.80803,45.64637 7.1327,6.15138 11.14451,22.7338 -1.96132,29.41951 -9.23358,4.71184 -20.50491,4.45786 -21.57531,8.3794 -1.06946,3.92261 -2.48005,9.87153 2.17264,17.23887 2.75625,4.36371 3.72195,11.73294 -6.51696,17.46079 -1.50573,0.84157 -1.73735,2.88042 -0.62345,4.19691 2.19784,2.59932 4.70598,6.80316 2.82706,11.02918 -2.8533,6.41914 -10.34164,6.41914 -11.05432,17.38419 -0.48574,7.46528 5.34875,17.11667 3.74425,29.68727 -1.60454,12.57062 -14.97787,29.41967 -37.71091,28.88555 -22.73386,-0.53529 -46.60889,-3.94012 -57.68168,7.13258 -5.84911,5.84908 -8.27101,31.76108 -9.27529,52.22726 -0.62633,12.75101 -13.64775,21.05187 -25.49993,16.31004 z"
   id="path4515" />
<path
   style="fill:#104233;fill-opacity:1"
   d="m 310.961,218.633 -1.353,-0.781 c 0.289,-1.566 0.487,-3.166 0.487,-4.814 0,-1.648 -0.198,-3.249 -0.487,-4.814 l 1.353,-0.781 c 4.22,-2.44 5.669,-7.837 3.233,-12.061 -2.444,-4.215 -7.837,-5.681 -12.061,-3.233 l -1.431,0.826 c -2.428,-2.071 -5.2,-3.702 -8.263,-4.795 v -1.624 c 0,-4.88 -3.953,-8.828 -8.828,-8.828 -4.875,0 -8.828,3.948 -8.828,8.828 v 1.627 c -3.063,1.092 -5.835,2.723 -8.263,4.795 l -1.431,-0.826 c -4.233,-2.449 -9.626,-0.983 -12.061,3.233 -2.435,4.224 -0.988,9.621 3.233,12.061 l 1.353,0.781 c -0.289,1.566 -0.487,3.166 -0.487,4.814 0,1.649 0.198,3.249 0.487,4.814 l -1.353,0.781 c -4.22,2.44 -5.668,7.837 -3.233,12.061 1.638,2.828 4.604,4.414 7.656,4.414 1.495,0 3.012,-0.38 4.405,-1.181 l 1.431,-0.826 c 2.428,2.071 5.2,3.702 8.263,4.795 v 1.624 c 0,4.88 3.953,8.828 8.828,8.828 4.875,0 8.828,-3.948 8.828,-8.828 v -1.627 c 3.063,-1.092 5.835,-2.723 8.263,-4.795 l 1.431,0.826 c 1.393,0.802 2.91,1.181 4.405,1.181 3.052,0 6.017,-1.587 7.656,-4.414 2.435,-4.225 0.987,-9.622 -3.233,-12.061 z m -36.178,-5.595 c 0,-4.871 3.961,-8.828 8.828,-8.828 4.867,0 8.828,3.957 8.828,8.828 0,4.871 -3.961,8.828 -8.828,8.828 -4.867,0 -8.828,-3.957 -8.828,-8.828 z"
   id="path4517" />
<path
   style="fill:#104233;fill-opacity:1"
   d="m 243.019,168.899 h -9.533 c -0.706,-4.902 -1.959,-9.622 -3.748,-14.085 l 8.234,-4.754 c 4.222,-2.438 5.669,-7.837 3.231,-12.059 -2.438,-4.223 -7.837,-5.67 -12.059,-3.231 l -8.259,4.769 c -3.019,-3.827 -6.473,-7.281 -10.3,-10.3 l 4.769,-8.259 c 2.438,-4.222 0.991,-9.621 -3.231,-12.059 -4.222,-2.438 -9.621,-0.991 -12.059,3.231 l -4.754,8.234 c -4.461,-1.79 -9.182,-3.043 -14.085,-3.748 v -9.534 c 0,-4.875 -3.953,-8.828 -8.828,-8.828 -4.875,0 -8.828,3.953 -8.828,8.828 v 9.533 c -4.902,0.706 -9.622,1.959 -14.085,3.748 l -4.754,-8.234 c -2.438,-4.222 -7.837,-5.669 -12.059,-3.231 -4.222,2.438 -5.669,7.837 -3.231,12.059 l 4.769,8.259 c -3.827,3.019 -7.281,6.473 -10.3,10.3 l -8.259,-4.769 c -4.222,-2.438 -9.621,-0.991 -12.059,3.231 -2.438,4.222 -0.991,9.621 3.231,12.059 l 8.234,4.754 c -1.79,4.461 -3.043,9.182 -3.748,14.085 h -9.533 c -4.875,0 -8.828,3.953 -8.828,8.828 0,4.875 3.953,8.828 8.828,8.828 h 9.533 c 0.706,4.902 1.959,9.621 3.748,14.084 l -8.234,4.755 c -4.222,2.438 -5.669,7.837 -3.231,12.059 2.438,4.222 7.837,5.669 12.059,3.231 l 8.261,-4.769 c 3.019,3.826 6.473,7.28 10.299,10.299 l -4.769,8.261 c -2.438,4.223 -0.991,9.621 3.231,12.059 4.222,2.438 9.621,0.991 12.059,-3.231 l 4.754,-8.234 c 4.461,1.79 9.182,3.042 14.085,3.748 v 9.535 c 0,4.875 3.953,8.828 8.828,8.828 4.875,0 8.828,-3.953 8.828,-8.828 v -9.533 c 4.902,-0.706 9.622,-1.959 14.085,-3.748 l 4.754,8.234 c 2.438,4.223 7.837,5.67 12.059,3.231 4.222,-2.438 5.669,-7.837 3.231,-12.059 l -4.769,-8.261 c 3.826,-3.02 7.28,-6.474 10.299,-10.299 l 8.261,4.769 c 4.222,2.438 9.621,0.991 12.059,-3.231 2.438,-4.223 0.991,-9.621 -3.231,-12.059 l -8.234,-4.755 c 1.79,-4.462 3.042,-9.182 3.748,-14.084 h 9.533 c 4.875,0 8.828,-3.953 8.828,-8.828 -0.002,-4.876 -3.955,-8.829 -8.83,-8.829 z m -26.483,8.828 c 0,24.337 -19.802,44.139 -44.139,44.139 -24.337,0 -44.139,-19.802 -44.139,-44.139 0,-24.337 19.802,-44.139 44.139,-44.139 24.337,0 44.139,19.802 44.139,44.139 z"
   id="path4519" />
<path
   style="fill:#f8ad3b;fill-opacity:1"
   d="m 172.397,133.588 c -24.377,0 -44.139,19.762 -44.139,44.139 0,24.377 19.762,44.139 44.139,44.139 24.377,0 44.139,-19.762 44.139,-44.139 0,-24.377 -19.762,-44.139 -44.139,-44.139 z m 0,70.622 c -14.626,0 -26.483,-11.857 -26.483,-26.483 0,-14.626 11.857,-26.483 26.483,-26.483 14.626,0 26.483,11.857 26.483,26.483 0,14.626 -11.857,26.483 -26.483,26.483 z"
   id="path4521" />
<g
   id="g4531"
   style="fill:#ee743a;fill-opacity:1"
   transform="translate(0,10)">
	<circle
   style="fill:#ee743a;fill-opacity:1"
   cx="172.395"
   cy="123.588"
   r="8.8280001"
   id="circle4523" />
	<circle
   style="fill:#ee743a;fill-opacity:1"
   cx="172.395"
   cy="211.866"
   r="8.8280001"
   id="circle4525" />
	<circle
   style="fill:#ee743a;fill-opacity:1"
   cx="216.534"
   cy="167.72701"
   r="8.8280001"
   id="circle4527" />
	<circle
   style="fill:#ee743a;fill-opacity:1"
   cx="128.256"
   cy="167.72701"
   r="8.8280001"
   id="circle4529" />
</g>
<path
   style="fill:#104233;fill-opacity:1"
   d="m 348.952,115.933 h -0.893 c -1.146,-5.624 -3.393,-10.844 -6.461,-15.473 l 0.668,-0.668 c 3.448,-3.448 3.448,-9.036 0,-12.485 -3.447,-3.447 -9.036,-3.447 -12.484,0 l -0.668,0.668 c -4.629,-3.069 -9.85,-5.314 -15.473,-6.461 v -0.893 c 0,-4.875 -3.953,-8.828 -8.828,-8.828 -4.875,0 -8.828,3.953 -8.828,8.828 v 0.893 c -5.624,1.147 -10.844,3.392 -15.473,6.461 l -0.668,-0.668 c -3.447,-3.447 -9.036,-3.447 -12.484,0 -3.448,3.448 -3.448,9.036 0,12.485 l 0.668,0.668 c -3.069,4.629 -5.314,9.848 -6.461,15.473 h -0.893 c -4.875,0 -8.828,3.953 -8.828,8.828 0,4.875 3.953,8.828 8.828,8.828 h 0.893 c 1.147,5.624 3.393,10.844 6.461,15.473 l -0.668,0.668 c -3.448,3.447 -3.448,9.036 0,12.484 3.447,3.448 9.036,3.448 12.484,0 l 0.668,-0.668 c 4.629,3.069 9.848,5.314 15.473,6.461 v 0.894 c 0,4.875 3.953,8.828 8.828,8.828 4.875,0 8.828,-3.953 8.828,-8.828 v -0.893 c 5.624,-1.147 10.844,-3.393 15.473,-6.461 l 0.668,0.668 c 3.447,3.448 9.036,3.448 12.484,0 3.448,-3.447 3.448,-9.036 0,-12.484 l -0.668,-0.668 c 3.069,-4.629 5.314,-9.848 6.461,-15.473 h 0.893 c 4.875,0 8.828,-3.953 8.828,-8.828 0,-4.877 -3.952,-8.829 -8.828,-8.829 z m -44.139,35.311 c -14.603,0 -26.483,-11.88 -26.483,-26.483 0,-14.603 11.88,-26.483 26.483,-26.483 14.603,0 26.483,11.88 26.483,26.483 0,14.603 -11.88,26.483 -26.483,26.483 z"
   id="path4533" />
<path
   style="fill:#f8ad3b;fill-opacity:1"
   d="m 304.813,98.277 c -14.626,0 -26.483,11.857 -26.483,26.483 0,14.626 11.857,26.483 26.483,26.483 14.626,0 26.483,-11.857 26.483,-26.483 0,-14.626 -11.856,-26.483 -26.483,-26.483 z m 0,35.311 c -4.875,0 -8.828,-3.953 -8.828,-8.828 0,-4.875 3.953,-8.828 8.828,-8.828 4.875,0 8.828,3.953 8.828,8.828 0,4.876 -3.952,8.828 -8.828,8.828 z"
   id="path4535" />
<g
   id="g4537"
   transform="translate(0,10)">
</g>
<g
   id="g4539"
   transform="translate(0,10)">
</g>
<g
   id="g4541"
   transform="translate(0,10)">
</g>
<g
   id="g4543"
   transform="translate(0,10)">
</g>
<g
   id="g4545"
   transform="translate(0,10)">
</g>
<g
   id="g4547"
   transform="translate(0,10)">
</g>
<g
   id="g4549"
   transform="translate(0,10)">
</g>
<g
   id="g4551"
   transform="translate(0,10)">
</g>
<g
   id="g4553"
   transform="translate(0,10)">
</g>
<g
   id="g4555"
   transform="translate(0,10)">
</g>
<g
   id="g4557"
   transform="translate(0,10)">
</g>
<g
   id="g4559"
   transform="translate(0,10)">
</g>
<g
   id="g4561"
   transform="translate(0,10)">
</g>
<g
   id="g4563"
   transform="translate(0,10)">
</g>
<g
   id="g4565"
   transform="translate(0,10)">
</g>
</svg>
