<?xml version="1.0" encoding="UTF-8" standalone="no"?><!-- Generator: Adobe Illustrator 16.0.0, SVG Export Plug-In . SVG Version: 6.00 Build 0)  --><svg   version="1.1"   id="Capa_1"   x="0px"   y="0px"   width="41.756px"   height="41.756px"   viewBox="0 0 41.756 41.756"   style="enable-background:new 0 0 41.756 41.756;"   xml:space="preserve"   xmlns="http://www.w3.org/2000/svg"   xmlns:svg="http://www.w3.org/2000/svg"><defs   id="defs1367" /><g   id="g1332">	<path   d="M27.948,20.878L40.291,8.536c1.953-1.953,1.953-5.119,0-7.071c-1.951-1.952-5.119-1.952-7.07,0L20.878,13.809L8.535,1.465   c-1.951-1.952-5.119-1.952-7.07,0c-1.953,1.953-1.953,5.119,0,7.071l12.342,12.342L1.465,33.22c-1.953,1.953-1.953,5.119,0,7.071   C2.44,41.268,3.721,41.755,5,41.755c1.278,0,2.56-0.487,3.535-1.464l12.343-12.342l12.343,12.343   c0.976,0.977,2.256,1.464,3.535,1.464s2.56-0.487,3.535-1.464c1.953-1.953,1.953-5.119,0-7.071L27.948,20.878z"   id="path1330" /></g><g   id="g1334"></g><g   id="g1336"></g><g   id="g1338"></g><g   id="g1340"></g><g   id="g1342"></g><g   id="g1344"></g><g   id="g1346"></g><g   id="g1348"></g><g   id="g1350"></g><g   id="g1352"></g><g   id="g1354"></g><g   id="g1356"></g><g   id="g1358"></g><g   id="g1360"></g><g   id="g1362"></g></svg>