<?xml version="1.0" encoding="UTF-8" standalone="no"?><!-- Generator: Adobe Illustrator 19.0.0, SVG Export Plug-In . SVG Version: 6.00 Build 0)  --><svg   version="1.1"   id="Layer_1"   x="0px"   y="0px"   viewBox="0 0 512 512"   style="enable-background:new 0 0 512 512;"   xml:space="preserve"   xmlns="http://www.w3.org/2000/svg"   xmlns:svg="http://www.w3.org/2000/svg"><defs   id="defs1172" /><g   id="g1131"   style="fill:#104233;fill-opacity:1">	<g   id="g1129"   style="fill:#104233;fill-opacity:1">		<path   d="M60.236,210.824L90.354,512h331.294l30.118-301.176H60.236z M188.236,459.294H143.06V263.529h45.176V459.294z     M278.589,459.294h-45.177V263.529h45.177V459.294z M368.942,459.294h-45.176V263.529h45.176V459.294z"   id="path1127"   style="fill:#104233;fill-opacity:1" />	</g></g><g   id="g1137"   style="fill:#104233;fill-opacity:1">	<g   id="g1135"   style="fill:#104233;fill-opacity:1">		<path   d="M391.53,90.353h-52.706v-7.529C338.824,37.155,301.67,0,256.001,0s-82.824,37.155-82.824,82.824v7.529h-52.706    c-44.767,0-81.908,32.565-89.08,75.294h449.218C473.438,122.918,436.297,90.353,391.53,90.353z M293.648,90.353h-75.294v-7.529    c0-20.759,16.888-37.647,37.647-37.647s37.647,16.888,37.647,37.647V90.353z"   id="path1133"   style="fill:#104233;fill-opacity:1" />	</g></g><g   id="g1139"></g><g   id="g1141"></g><g   id="g1143"></g><g   id="g1145"></g><g   id="g1147"></g><g   id="g1149"></g><g   id="g1151"></g><g   id="g1153"></g><g   id="g1155"></g><g   id="g1157"></g><g   id="g1159"></g><g   id="g1161"></g><g   id="g1163"></g><g   id="g1165"></g><g   id="g1167"></g></svg>